<svg width="20" height="20" viewBox="0 0 20 20" fill="none" xmlns="http://www.w3.org/2000/svg">
<path d="M13.3327 5.0013C13.3327 3.42964 13.3327 2.64464 12.8443 2.1563C12.356 1.66797 11.571 1.66797 9.99935 1.66797C8.42768 1.66797 7.64268 1.66797 7.15435 2.1563C6.66602 2.64464 6.66602 3.42964 6.66602 5.0013M1.66602 11.668C1.66602 8.52547 1.66602 6.9538 2.64268 5.97797C3.61935 5.00214 5.19018 5.0013 8.33268 5.0013H11.666C14.8085 5.0013 16.3802 5.0013 17.356 5.97797C18.3318 6.95464 18.3327 8.52547 18.3327 11.668C18.3327 14.8105 18.3327 16.3821 17.356 17.358C16.3793 18.3338 14.8085 18.3346 11.666 18.3346H8.33268C5.19018 18.3346 3.61852 18.3346 2.64268 17.358C1.66685 16.3813 1.66602 14.8105 1.66602 11.668Z" stroke="white" stroke-width="1.25"/>
<path d="M9.9987 14.4468C10.9195 14.4468 11.6654 13.8251 11.6654 13.0584C11.6654 12.2918 10.9195 11.6693 9.9987 11.6693C9.07786 11.6693 8.33203 11.0476 8.33203 10.2801C8.33203 9.51344 9.07786 8.89177 9.9987 8.89177M9.9987 14.4468C9.07786 14.4468 8.33203 13.8251 8.33203 13.0584M9.9987 14.4468V15.0026M9.9987 8.89177V8.33594M9.9987 8.89177C10.9195 8.89177 11.6654 9.51344 11.6654 10.2801" stroke="white" stroke-width="1.25" stroke-linecap="round"/>
</svg>