<svg width="18" height="18" viewBox="0 0 18 18" fill="none" xmlns="http://www.w3.org/2000/svg">
<path d="M17.3327 17.3359H0.666016" stroke="#242639" stroke-width="1.25" stroke-linecap="round"/>
<path d="M16.5 17.3346V11.0846C16.5 10.7531 16.3683 10.4352 16.1339 10.2008C15.8995 9.96633 15.5815 9.83464 15.25 9.83464H12.75C12.4185 9.83464 12.1005 9.96633 11.8661 10.2008C11.6317 10.4352 11.5 10.7531 11.5 11.0846V17.3346V3.16797C11.5 1.98964 11.5 1.40047 11.1333 1.03464C10.7683 0.667969 10.1792 0.667969 9 0.667969C7.82083 0.667969 7.2325 0.667969 6.86667 1.03464C6.5 1.39964 6.5 1.9888 6.5 3.16797V17.3346V6.91797C6.5 6.58645 6.3683 6.26851 6.13388 6.03408C5.89946 5.79966 5.58152 5.66797 5.25 5.66797H2.75C2.41848 5.66797 2.10054 5.79966 1.86612 6.03408C1.6317 6.26851 1.5 6.58645 1.5 6.91797V17.3346" stroke="#242639" stroke-width="1.25"/>
</svg>
